P3
3 3
255
190 190 190 180 180 180 170 170 170
30 30 30 70 70 70 200 200 200
20 20 20 50 50 50 80 80 80
